<svg width="12" height="13" viewBox="0 0 12 13" fill="none" xmlns="http://www.w3.org/2000/svg">
<rect y="0.5" width="12" height="12" rx="6" fill="#FD2B01"/>
<path d="M9.76743 7.9128L8.35465 6.50001L9.76743 5.08722C9.89233 4.96232 9.9625 4.79292 9.9625 4.61629C9.9625 4.43966 9.89233 4.27026 9.76743 4.14536L8.35465 2.73258C8.22975 2.60768 8.06035 2.53751 7.88372 2.53751C7.70708 2.53751 7.53769 2.60768 7.41279 2.73258L6 4.14536L4.58721 2.73258C4.46231 2.60768 4.29292 2.53751 4.11628 2.53751C3.93965 2.53751 3.77025 2.60768 3.64535 2.73258L2.23257 4.14536C2.10767 4.27026 2.0375 4.43966 2.0375 4.61629C2.0375 4.79292 2.10767 4.96232 2.23257 5.08722L3.64535 6.50001L2.23257 7.9128C2.10767 8.03769 2.0375 8.20709 2.0375 8.38372C2.0375 8.56036 2.10767 8.72976 2.23257 8.85465L3.64535 10.2674C3.77025 10.3923 3.93965 10.4625 4.11628 10.4625C4.29292 10.4625 4.46231 10.3923 4.58721 10.2674L6 8.85465L7.41279 10.2674C7.53769 10.3923 7.70708 10.4625 7.88372 10.4625C8.06035 10.4625 8.22975 10.3923 8.35465 10.2674L9.76743 8.85465C9.89233 8.72976 9.9625 8.56036 9.9625 8.38372C9.9625 8.20709 9.89233 8.03769 9.76743 7.9128ZM7.88372 9.79651L6.23546 8.14826C6.17302 8.08581 6.08832 8.05073 6 8.05073C5.91168 8.05073 5.82698 8.08581 5.76454 8.14826L4.11628 9.79651L2.7035 8.38372L4.35175 6.73547C4.4142 6.67302 4.44928 6.58832 4.44928 6.50001C4.44928 6.41169 4.4142 6.32699 4.35175 6.26454L2.7035 4.61629L4.11628 3.2035L5.76454 4.85176C5.82698 4.91421 5.91168 4.94929 6 4.94929C6.08832 4.94929 6.17302 4.91421 6.23546 4.85176L7.88372 3.2035L9.2965 4.61629L7.64825 6.26454C7.5858 6.32699 7.55072 6.41169 7.55072 6.50001C7.55072 6.58832 7.5858 6.67302 7.64825 6.73547L9.2965 8.38372L7.88372 9.79651Z" fill="black"/>
</svg>
