<svg width="24" height="24" viewBox="0 0 24 24" fill="none" xmlns="http://www.w3.org/2000/svg">
<path d="M14.2498 8.25C14.8432 8.25 15.4232 8.07405 15.9165 7.74441C16.4099 7.41477 16.7944 6.94623 17.0215 6.39805C17.2485 5.84987 17.3079 5.24667 17.1922 4.66473C17.0764 4.08279 16.7907 3.54824 16.3712 3.12868C15.9516 2.70912 15.4171 2.4234 14.8351 2.30765C14.2532 2.19189 13.65 2.2513 13.1018 2.47836C12.5536 2.70543 12.0851 3.08994 11.7554 3.58329C11.4258 4.07664 11.2498 4.65666 11.2498 5.25C11.2498 6.04565 11.5659 6.80871 12.1285 7.37132C12.6911 7.93393 13.4542 8.25 14.2498 8.25ZM14.2498 3.75C14.5465 3.75 14.8365 3.83797 15.0832 4.0028C15.3299 4.16762 15.5221 4.40189 15.6357 4.67598C15.7492 4.95007 15.7789 5.25167 15.721 5.54264C15.6631 5.83361 15.5203 6.10088 15.3105 6.31066C15.1007 6.52044 14.8334 6.6633 14.5425 6.72118C14.2515 6.77906 13.9499 6.74935 13.6758 6.63582C13.4017 6.52229 13.1675 6.33003 13.0026 6.08336C12.8378 5.83668 12.7498 5.54667 12.7498 5.25C12.7498 4.85218 12.9079 4.47065 13.1892 4.18934C13.4705 3.90804 13.852 3.75 14.2498 3.75ZM20.5602 13.1888C20.503 13.215 19.858 13.4963 18.7161 13.4963C17.4177 13.4963 15.477 13.1325 13.0264 11.6213C12.6534 12.6801 12.1691 13.6964 11.5817 14.6531C12.6368 14.9779 13.6293 15.4791 14.517 16.1353C16.3048 17.4984 17.2498 19.4391 17.2498 21.75C17.2498 21.9489 17.1708 22.1397 17.0302 22.2803C16.8895 22.421 16.6987 22.5 16.4998 22.5C16.3009 22.5 16.1102 22.421 15.9695 22.2803C15.8289 22.1397 15.7498 21.9489 15.7498 21.75C15.7498 17.8406 12.4976 16.4334 10.6742 15.9516C10.6226 16.0172 10.5692 16.0838 10.5158 16.1484C8.67452 18.3797 6.36734 19.5403 3.80046 19.5403C3.50809 19.5417 3.21584 19.5282 2.92484 19.5C2.72592 19.4801 2.54306 19.382 2.41647 19.2273C2.28989 19.0726 2.22995 18.8739 2.24984 18.675C2.26973 18.4761 2.36782 18.2932 2.52254 18.1666C2.67726 18.0401 2.87592 17.9801 3.07484 18C5.50484 18.2419 7.6189 17.2978 9.35609 15.1875C10.527 13.7681 11.3248 12.0366 11.7233 10.7813C8.07452 8.65781 5.7439 10.4653 5.71859 10.485C5.64219 10.5502 5.55346 10.5995 5.45767 10.6297C5.36188 10.66 5.26099 10.6708 5.16097 10.6613C5.06095 10.6519 4.96386 10.6224 4.87544 10.5747C4.78703 10.527 4.7091 10.462 4.64628 10.3836C4.58346 10.3052 4.53703 10.215 4.50975 10.1183C4.48246 10.0216 4.47488 9.92045 4.48746 9.82077C4.50003 9.7211 4.5325 9.62497 4.58294 9.53809C4.63338 9.45121 4.70076 9.37534 4.78109 9.315C4.92171 9.2025 8.27046 6.59625 13.1726 9.93094C17.4355 12.8288 19.9161 11.835 19.9395 11.8238C20.0294 11.7813 20.1268 11.7572 20.226 11.7527C20.3253 11.7482 20.4245 11.7635 20.5178 11.7977C20.6111 11.8319 20.6967 11.8843 20.7696 11.9518C20.8424 12.0193 20.9012 12.1007 20.9424 12.1911C20.9835 12.2816 21.0063 12.3793 21.0094 12.4786C21.0125 12.5779 20.9959 12.6769 20.9604 12.7697C20.9249 12.8625 20.8713 12.9473 20.8028 13.0193C20.7342 13.0912 20.6521 13.1488 20.5611 13.1888H20.5602Z" fill="#DFFF4E"/>
</svg>
