<svg width="24" height="24" viewBox="0 0 24 24" fill="none" xmlns="http://www.w3.org/2000/svg">
<path d="M12.0002 7.49992C11.1102 7.49992 10.2401 7.76384 9.50011 8.25831C8.76009 8.75277 8.18331 9.45558 7.84272 10.2778C7.50213 11.1001 7.41301 12.0049 7.58664 12.8778C7.76028 13.7507 8.18886 14.5526 8.8182 15.1819C9.44753 15.8112 10.2494 16.2398 11.1223 16.4135C11.9952 16.5871 12.9 16.498 13.7223 16.1574C14.5445 15.8168 15.2473 15.24 15.7418 14.5C16.2363 13.76 16.5002 12.8899 16.5002 11.9999C16.4989 10.8068 16.0244 9.66296 15.1808 8.81931C14.3371 7.97567 13.1933 7.50116 12.0002 7.49992ZM12.0002 14.9999C11.4068 14.9999 10.8268 14.824 10.3335 14.4943C9.84012 14.1647 9.4556 13.6961 9.22854 13.148C9.00148 12.5998 8.94207 11.9966 9.05782 11.4146C9.17358 10.8327 9.4593 10.2982 9.87886 9.8786C10.2984 9.45904 10.833 9.17332 11.4149 9.05757C11.9969 8.94181 12.6 9.00122 13.1482 9.22828C13.6964 9.45535 14.1649 9.83986 14.4946 10.3332C14.8242 10.8266 15.0002 11.4066 15.0002 11.9999C15.0002 12.7956 14.6841 13.5586 14.1215 14.1212C13.5589 14.6839 12.7958 14.9999 12.0002 14.9999ZM22.3071 10.0509C22.2862 9.94524 22.2428 9.84537 22.1799 9.75801C22.1169 9.67066 22.0359 9.59787 21.9424 9.54461L19.1458 7.95086L19.1346 4.79898C19.1342 4.69043 19.1103 4.58325 19.0645 4.48484C19.0187 4.38643 18.9521 4.29913 18.8692 4.22898C17.8548 3.37089 16.6866 2.7133 15.4267 2.29117C15.3275 2.25759 15.2224 2.24516 15.1181 2.25469C15.0138 2.26422 14.9126 2.29549 14.8211 2.34648L12.0002 3.92336L9.17643 2.34367C9.08488 2.29239 8.9836 2.26088 8.87911 2.25119C8.77463 2.2415 8.66928 2.25384 8.56987 2.28742C7.31094 2.71263 6.14408 3.37273 5.13112 4.23273C5.0484 4.30278 4.98185 4.38993 4.93604 4.48816C4.89024 4.5864 4.86628 4.6934 4.8658 4.8018L4.85174 7.95648L2.05518 9.55023C1.96162 9.6035 1.88062 9.67628 1.81769 9.76364C1.75476 9.85099 1.71138 9.95087 1.69049 10.0565C1.43455 11.3426 1.43455 12.6666 1.69049 13.9527C1.71138 14.0583 1.75476 14.1582 1.81769 14.2456C1.88062 14.3329 1.96162 14.4057 2.05518 14.459L4.85174 16.0527L4.86299 19.2046C4.86333 19.3132 4.88723 19.4203 4.93304 19.5188C4.97884 19.6172 5.04547 19.7045 5.1283 19.7746C6.14275 20.6327 7.31095 21.2903 8.5708 21.7124C8.67002 21.746 8.77517 21.7584 8.87947 21.7489C8.98378 21.7394 9.08494 21.7081 9.17643 21.6571L12.0002 20.0765L14.8239 21.6562C14.9357 21.7184 15.0616 21.7507 15.1896 21.7499C15.2715 21.7499 15.3528 21.7366 15.4305 21.7105C16.6893 21.2859 17.8561 20.6264 18.8692 19.7671C18.952 19.6971 19.0185 19.6099 19.0643 19.5117C19.1101 19.4134 19.1341 19.3064 19.1346 19.198L19.1486 16.0434L21.9452 14.4496C22.0387 14.3963 22.1197 14.3236 22.1827 14.2362C22.2456 14.1489 22.289 14.049 22.3099 13.9434C22.5644 12.6582 22.5634 11.3356 22.3071 10.0509ZM20.9008 13.3237L18.2224 14.8471C18.105 14.9138 18.0078 15.011 17.9411 15.1284C17.8867 15.2221 17.8296 15.3215 17.7714 15.4152C17.697 15.5335 17.6574 15.6702 17.6571 15.8099L17.643 18.8334C16.9231 19.3987 16.121 19.8508 15.2646 20.174L12.5627 18.6684C12.4505 18.6063 12.3243 18.574 12.1961 18.5746H12.1783C12.0649 18.5746 11.9505 18.5746 11.8371 18.5746C11.7029 18.5713 11.5702 18.6036 11.4527 18.6684L8.74893 20.1777C7.89066 19.857 7.08639 19.4072 6.36393 18.8437L6.35362 15.8249C6.35315 15.685 6.31354 15.5479 6.23924 15.4293C6.18112 15.3355 6.12393 15.2418 6.07049 15.1424C6.00423 15.0233 5.90707 14.9242 5.78924 14.8555L3.10799 13.3284C2.96924 12.4507 2.96924 11.5567 3.10799 10.679L5.78174 9.15273C5.89909 9.086 5.99626 8.98884 6.06299 8.87148C6.11737 8.77773 6.17455 8.67836 6.23268 8.58461C6.30708 8.46638 6.34672 8.32961 6.34705 8.18992L6.36112 5.16648C7.08105 4.60112 7.88311 4.14903 8.73955 3.82586L11.4377 5.33148C11.5551 5.39657 11.6878 5.42895 11.8221 5.42523C11.9355 5.42523 12.0499 5.42523 12.1633 5.42523C12.2975 5.42859 12.4301 5.39623 12.5477 5.33148L15.2514 3.82211C16.1097 4.1428 16.914 4.59268 17.6364 5.15617L17.6467 8.17492C17.6472 8.31488 17.6868 8.45193 17.7611 8.57055C17.8192 8.6643 17.8764 8.75805 17.9299 8.85742C17.9961 8.97659 18.0933 9.07569 18.2111 9.1443L20.8924 10.6715C21.033 11.5498 21.0345 12.4448 20.8971 13.3237H20.9008Z" fill="#DFFF4E"/>
</svg>
