<svg width="12" height="13" viewBox="0 0 12 13" fill="none" xmlns="http://www.w3.org/2000/svg">
<rect y="0.5" width="12" height="12" rx="6" fill="#DFFF4E"/>
<path d="M10.796 3.72752L9.76131 2.70298C9.63202 2.57299 9.45692 2.5 9.27437 2.5C9.09183 2.5 8.91673 2.57299 8.78744 2.70298L4.79149 6.68417L3.20976 5.13605C3.0802 5.00648 2.90503 4.93396 2.72259 4.93437C2.54015 4.93478 2.3653 5.00808 2.23631 5.13822L1.20165 6.1819C1.07253 6.31235 1 6.48916 1 6.67351C1 6.85786 1.07253 7.03467 1.20165 7.16513L4.28925 10.2962C4.35331 10.3608 4.42935 10.412 4.51305 10.447C4.59675 10.482 4.68646 10.5 4.77705 10.5C4.86765 10.5 4.95736 10.482 5.04105 10.447C5.12475 10.412 5.2008 10.3608 5.26485 10.2962L10.7981 4.71336C10.8623 4.64857 10.9132 4.57164 10.9478 4.48698C10.9825 4.40231 11.0002 4.31158 11 4.21999C10.9998 4.1284 10.9817 4.03774 10.9467 3.95323C10.9116 3.86872 10.8604 3.79202 10.796 3.72752ZM4.77511 9.80519L1.68751 6.67416L2.72217 5.63049C2.72343 5.63154 2.72458 5.6327 2.72562 5.63397L4.55137 7.42083C4.61582 7.48444 4.7024 7.52006 4.79257 7.52006C4.88274 7.52006 4.96933 7.48444 5.03378 7.42083L9.27761 3.19525L10.3097 4.22153L4.77511 9.80519Z" fill="black"/>
</svg>
